<?xml version="1.0" encoding="utf-8"?>
<!-- Generator: Adobe Illustrator 25.0.0, SVG Export Plug-In . SVG Version: 6.00 Build 0)  -->
<svg version="1.1" xmlns="http://www.w3.org/2000/svg" xmlns:xlink="http://www.w3.org/1999/xlink" x="0px" y="0px"
	 viewBox="0 0 763.6 382.5" style="enable-background:new 0 0 763.6 382.5;" xml:space="preserve">
<style type="text/css">
	.st0{opacity:0.5;fill-rule:evenodd;clip-rule:evenodd;fill:#67878F;}
</style>
<g id="BACKGROUND">
	<path class="st0" d="M746.5,82.2V70.6c0.4,0.2,0.8,0.5,1.2,0.8c3.8,3,7.9,6,13.5,6c5.6,0,0,9-3.8,10.1c-3.8,1.1-3.8-2.6-7.1-4.5
		C749,82.4,747.6,82.1,746.5,82.2L746.5,82.2z M746.5,63.8v-3.6l0.1,0c2.1-0.1,4.9,3.7,0.7,3.7C747,63.8,746.7,63.8,746.5,63.8z
		 M746.5,60.2v3.6C742.9,63.3,742.1,59.9,746.5,60.2L746.5,60.2z M746.5,70.6v11.6c-1.9,0.2-3.3,1.4-2.6,3.5
		c0.5,1.5-0.1,1.8-1.2,1.6V69.1C744.1,69.5,745.3,70,746.5,70.6L746.5,70.6z M742.7,291.2v-3.2c1-0.3,1.7,0.2,1.5,1.3
		C744.1,290.3,743.5,291.3,742.7,291.2L742.7,291.2z M742.7,93.7v-3.3C744.9,92,744.9,93.2,742.7,93.7z M742.7,69.1v18.2
		c-1.3-0.3-3.2-1.4-5-2.4V67.8C739.4,68.2,741.1,68.6,742.7,69.1L742.7,69.1z M742.7,90.4v3.3c-0.7,0.2-1.7,0.3-3,0.3
		c-0.7,0-1.4,0.1-2,0.2v-6.8c0.8,0.6,1.7,1.2,2.8,1.7C741.4,89.6,742.2,90,742.7,90.4L742.7,90.4z M742.7,288.1v3.2
		c-0.3,0-0.5-0.2-0.8-0.5c-1-1.3-1-2.1,0.4-2.5C742.5,288.2,742.6,288.1,742.7,288.1L742.7,288.1z M737.7,346.3v-4.5
		C738.3,343.1,738.2,344.9,737.7,346.3L737.7,346.3z M737.7,293v-3.2c1-0.3,1.7,0.2,1.5,1.3C739,292,738.4,293,737.7,293z
		 M737.7,67.8V85l-0.6-0.3c-2.7-1.5-2.3,0.6,0.6,2.8v6.8c-2.4,0.4-4,1.5-5.2,2.9V65.8c0.3,0.1,0.6,0.3,0.9,0.4
		C734.7,66.9,736.2,67.4,737.7,67.8L737.7,67.8z M737.7,289.8v3.2c-0.3,0-0.5-0.2-0.8-0.5c-1-1.3-1-2.1,0.4-2.5
		C737.5,289.9,737.6,289.9,737.7,289.8L737.7,289.8z M737.7,341.8v4.5c-0.6,1.8-1.8,3.1-3.1,2.6c-0.9-0.3-1.6-0.6-2.1-1v-12.7
		c0.7,1.9,1.5,3.9,3.4,4.7C736.8,340.3,737.4,341,737.7,341.8z M732.5,65.8v31.3c-1.1,1.2-2,2.7-2.9,4c-0.2,0.3-0.4,0.6-0.7,0.8
		V64.4C730,64.7,731.3,65.2,732.5,65.8L732.5,65.8z M732.5,335.2v12.7c-1.3-1-1.8-2.5-2.4-5.5c-0.2-1.1-0.7-2.4-1.2-3.6v-8
		C731,330.9,731.7,333,732.5,335.2L732.5,335.2z M728.9,355.3c2.7-3.1,2.9-7.6,0-8.1V355.3z M728.9,64.4v37.6
		c-1.6,1.4-3.3-0.6-5.5-1.5v-31c6.5,2,6.1,1.2,3.1-2.8C724.6,63.8,726.3,63.6,728.9,64.4L728.9,64.4z M728.9,330.8v8
		c-1.5-3.7-3.4-7.5-0.8-7.9C728.4,330.8,728.7,330.8,728.9,330.8L728.9,330.8z M728.9,347.2v8.1l-0.1,0.1c-1.3,1.4-3.4,2.8-5.4,4.2
		v-6.3c2.1-1.7-0.5-5.5,4.9-6.2C728.6,347.2,728.8,347.2,728.9,347.2L728.9,347.2z M723.5,239.6v-3.2c1-0.3,1.7,0.2,1.5,1.3
		C724.8,238.7,724.2,239.7,723.5,239.6z M723.5,69.4v31c-0.5-0.2-1.1-0.4-1.7-0.4c-0.4,0-0.8,0-1.1,0.1V68.6
		c0.6,0.2,1.3,0.4,2.2,0.6L723.5,69.4L723.5,69.4z M723.5,236.5v3.2c-0.3,0-0.5-0.2-0.8-0.5c-1-1.3-1-2.1,0.4-2.5
		C723.2,236.6,723.3,236.5,723.5,236.5L723.5,236.5z M723.5,353.4v6.3c-1,0.7-2,1.4-2.8,2.2v-7.4c0.5-0.1,1-0.3,1.5-0.4
		C722.7,353.8,723.1,353.6,723.5,353.4L723.5,353.4z M720.6,293.4v-4.5c2.3,1.7,3.8,4.7,1.2,4.7C721.4,293.6,721,293.5,720.6,293.4
		L720.6,293.4z M720.6,121v-2.3c1.7,1.2,3.4,3,1.7,2.9C721.7,121.5,721.2,121.3,720.6,121z M720.6,68.6v31.6
		c-2.4,0.4-3.2,2.1-7.2,1.4l-0.3,0v-4.1c3.1-1.5,1.8-3.3,0-3.2V68.8c0.3,0,0.7,0,1,0.1C717.8,69.2,716.2,67.5,720.6,68.6L720.6,68.6
		z M720.6,118.6v2.3c-1.8-1.1-3.2-3.2-1.9-3.2C719.2,117.8,719.9,118.2,720.6,118.6L720.6,118.6z M720.6,288.9v4.5
		c-3-1-5.2-5.3-2.5-5.5C718.9,287.9,719.8,288.3,720.6,288.9L720.6,288.9z M720.6,354.3v7.4c-1.5,1.3-2.7,2.6-3,4.2
		c-1,4.3-2-4-2.8-6.3C714.2,357.7,716.9,355.5,720.6,354.3L720.6,354.3z M713.2,302.2v-4.5c3.2,0.7,7.3,4.9,3.2,5.2
		C715.2,302.9,714.1,302.6,713.2,302.2L713.2,302.2z M713.2,108.3v-2.8c1.9,0.4,2.9,2.9,0.8,2.9
		C713.7,108.4,713.4,108.4,713.2,108.3z M713.2,68.8v25.4c-0.5,0-1.1,0.2-1.6,0.6c-1,0.8-2.4,1.6-3.8,2.1V69.4
		C709.4,69.1,711.2,68.7,713.2,68.8L713.2,68.8z M713.2,97.4v4.1C708.9,100.7,709,99.2,713.2,97.4L713.2,97.4L713.2,97.4z
		 M713.2,105.5v2.8c-1.9-0.5-3.1-2.7-0.5-2.9C712.8,105.4,713,105.5,713.2,105.5L713.2,105.5z M713.2,297.7v4.5
		c-3-1.4-4.6-4.6-0.8-4.6C712.6,297.6,712.9,297.6,713.2,297.7L713.2,297.7z M707.8,280.2v-3c1.5,1.3,2.7,3.1,0.5,3.1
		C708.2,280.2,708,280.2,707.8,280.2L707.8,280.2z M707.8,121.7c2.3,0.2,0.9-7.4,2.8-7.7c1.7-0.2-0.4-6.9-2.8-9.4V121.7L707.8,121.7
		z M707.8,65.7v-2.5c2.2,0.3,3,2.7,0.9,2.7C708.4,65.8,708.1,65.8,707.8,65.7z M707.8,63.1v2.5c-1.9-0.6-3.4-2.5-0.6-2.5
		C707.4,63.1,707.6,63.1,707.8,63.1L707.8,63.1z M707.8,69.4v27.4c-1.9,0.7-3.8,0.7-4.5-0.6c-0.6-1.2-2.1-2.1-3.7-2V65.8
		c1.5,2,2.9,4.2,4.5,4.2C705.3,70,706.5,69.7,707.8,69.4L707.8,69.4z M707.8,104.7v17.1c-0.2,0-0.5-0.1-0.9-0.3
		c-3.5-2.3-2.3,0.6-4.1,3.4c-0.7,1-1.9,1.7-3.3,2v-18.5c2.4-2.6,3.7-4.8,6.5-4.5C706.6,103.7,707.2,104.1,707.8,104.7L707.8,104.7z
		 M707.8,277.1v3c-3.1-0.4-6.1-4.2-2.4-4.2C706,275.9,707,276.5,707.8,277.1L707.8,277.1z M699.5,273.3v-3.1c3.3,1,6.7,3.2,3.9,3.5
		C702.4,273.7,700.9,273.6,699.5,273.3z M699.5,65.8v28.5c-1.5,0.1-3.1,1-4.5,3.1c-1.2,1.8-2.3,3.6-3.4,5.1V62.4c1.4,0,2.7,0,3.7,0
		C697,62.4,698.3,64,699.5,65.8L699.5,65.8z M699.5,108.3v18.5c-2.4,0.6-5.2,0.1-5.3-1.6c-0.3-2.5,1-5.6,0.1-7.8
		c-0.8-2.1-1.6-3,2.7-6.6C698,110,698.8,109.1,699.5,108.3L699.5,108.3z M699.5,270.1v3.1c-3.6-0.8-7-2.7-3.4-3.6
		C697,269.5,698.3,269.7,699.5,270.1L699.5,270.1z M691.7,314.3v-3.2c1-0.3,1.7,0.2,1.5,1.3C693,313.3,692.4,314.3,691.7,314.3
		L691.7,314.3z M691.7,265.4v-1.2C692,264.7,692.1,265.2,691.7,265.4z M691.7,62.4v40.1c-1.1,1.5-2.3,2.6-3.6,2.8V62.1
		C689.3,62.3,690.5,62.4,691.7,62.4L691.7,62.4z M691.7,264.2v1.2c-0.2,0.1-0.4,0.1-0.8,0.1c-0.9,0-1.9-0.3-2.8-0.9V261
		C689.5,261.9,691,263.2,691.7,264.2L691.7,264.2z M691.7,311.1v3.2c-0.3,0-0.5-0.2-0.8-0.5c-1-1.3-1-2.1,0.4-2.5
		C691.4,311.2,691.5,311.2,691.7,311.1L691.7,311.1z M688,321.8V311C688.9,314,688.8,318.1,688,321.8z M688,62.1v43.2
		c-0.6,0.1-1.3,0-2-0.4c-3.4-1.7-6.2-0.6-10.1-0.4V58.9c1.2-1.4,2.8-2,5.6,0.5C683.2,61,685.6,61.8,688,62.1L688,62.1z M688,261v3.6
		c-3-1.6-5.5-5.1-2.6-4.7C686,260,687,260.4,688,261L688,261z M688,311v10.9c-0.3,1.7-0.8,3.3-1.3,4.8c-1.8,5.1-6.2,14.7-10.9,17
		v-48c3.5,5,7.7,9.8,9.9,11.6C686.9,308,687.6,309.3,688,311L688,311z M675.9,353.3v-7.7c1.9-0.2,3.2,1.1,2.8,3.3
		C678.3,350.7,677.3,352.7,675.9,353.3L675.9,353.3z M675.9,272.7v-5.1c1.8,2.9,4,5.8,0.8,5.2C676.5,272.8,676.2,272.7,675.9,272.7
		L675.9,272.7z M675.9,44.9v-3.1c2.2,0.1,4.7,3.1,0.9,3.1C676.5,45,676.2,44.9,675.9,44.9z M666.9,146.3c1,1,1,2.3,2,2.5
		c1.3,0.3,3.8,1.3,1.9,2.4c-1.9,1.1-2.8,3.6-3.6,2.9c-0.1-0.1-0.2-0.2-0.3-0.3V146.3L666.9,146.3z M675.9,41.8v3.1
		c-3.2-0.5-4.4-3.4-0.2-3.1C675.8,41.8,675.9,41.8,675.9,41.8L675.9,41.8z M675.9,58.9v45.6c-0.4,0-0.8,0-1.2,0c-2.5,0-5.4-1-7.8-1
		v-48c3.3-0.9,6-1,5.2,0.9c-1.5,3.4,1.1,6.4,2.6,4.1C675.1,60,675.5,59.4,675.9,58.9L675.9,58.9z M675.9,267.6v5.1
		c-4.1-0.9-5.3-2.7-7.6-2.1c-0.5,0.1-1,0.4-1.5,0.7v-11.7c2.8-0.2,7.8,1.3,7.5,4.1C674.3,264.7,675,266.2,675.9,267.6L675.9,267.6z
		 M675.9,295.6v48c-1.2,0.6-2.5,0.7-3.7,0.1c-2-1.1-3.8-1.5-5.4-1.8v-62.6c1.2,0.5,2.4,1.9,2.9,4.5
		C670.3,286.8,672.9,291.3,675.9,295.6L675.9,295.6z M675.9,345.6v7.7c-0.9,0.4-1.9,0.2-2.9-1c-2.5-3.1-2.3-5,1-6
		C674.7,345.9,675.4,345.7,675.9,345.6L675.9,345.6z M666.9,160.3v-0.7C666.9,159.9,666.9,160.1,666.9,160.3L666.9,160.3z
		 M666.9,145.1V142c1.3,1.2,2.3,2.8,1.7,3.5C668.4,145.8,667.7,145.6,666.9,145.1L666.9,145.1z M666.9,137.7v-6.5
		c2.5,0.3,3.2,4.2,1.9,4C667.3,134.8,669.3,139.5,666.9,137.7L666.9,137.7L666.9,137.7z M666.9,123.6v-2.3c2.3,0.3,2.8,2.6,0.7,2.4
		C667.4,123.7,667.1,123.6,666.9,123.6L666.9,123.6z M666.9,52.1v-2.4C667.7,50.5,667.8,51.5,666.9,52.1L666.9,52.1z M666.9,42.3
		v-4.4c1,0.3,1.6,1,1.6,2.1C668.5,41.1,667.8,41.8,666.9,42.3z M665.6,145.5c0.6,0.2,1,0.5,1.3,0.8v7.6c-1-0.9-2.8-2.7-1.9-0.8
		c1,2.2,0.8,2.7-0.2,2.7c-1-0.1-2.2-2.4-2.4-3.9c-0.2-1.5,2,0.3,2.6-1.2C665.6,149.2,663.7,144.6,665.6,145.5L665.6,145.5z
		 M666.9,37.9v4.4c-1.8,1-4.9,1.1-6.8,1.4c-1.3,0.2-3-0.9-3.9-2.2v-2.6c0.6-0.5,1.6-0.9,3.3-0.9C662.3,37.7,665.2,37.3,666.9,37.9
		L666.9,37.9z M666.9,49.8v2.4c-0.4,0.3-1.1,0.5-2,0.6c-4.2,0.2-4.8-3.3-0.9-3.7C665.3,48.9,666.3,49.2,666.9,49.8L666.9,49.8z
		 M666.9,55.5v48c-1.8-0.1-3.4,0.4-4.2,2.2c-1.5,3.3-3.5,7.1-6.5,8.8V59.9c1.2-0.3,2.3-0.7,3.8-1.6
		C661.7,57.3,664.4,56.2,666.9,55.5L666.9,55.5z M666.9,121.3v2.3c-1.9-0.6-3.2-2.9-0.5-2.3C666.6,121.2,666.7,121.3,666.9,121.3
		L666.9,121.3z M666.9,131.1v6.5c-2.3-1.9-2.3-7.2-0.3-6.6C666.7,131.1,666.8,131.1,666.9,131.1L666.9,131.1z M666.9,142
		c-0.9-0.8-1.9-1.4-2.5-1.3c-2.1,0.2,0.5,3.2,2.5,4.4V142L666.9,142z M666.9,159.6v0.7c0,0.2-0.1,0.4-0.2,0.5
		c-0.8,1-1.1,2.7-1.3,4.3c-0.2,1.6-1.2,3.5-2.5,3.8c-1.3,0.3-2.6,0.5-2.9,1.5c-0.3,1-1.3,0.9-2-0.4c-0.4-0.8-0.9-1.7-1.8-2.1v-2.7
		c1.3,0,2.4,0.2,3.2-1.2c1.3-2.2,2.8-1.2,3.3-3.2c0.6-2,0.5-4.7,2.1-4.2C665.7,156.7,666.7,158.4,666.9,159.6L666.9,159.6z
		 M666.9,259.6v11.7c-2.1,1.2-4.4,3.2-6.5,0.3c-1.2-1.3-2.8-3.4-4.2-5.6v-8.3c3.2,0.4,8,2.2,10.3,1.9
		C666.6,259.6,666.8,259.6,666.9,259.6L666.9,259.6z M666.9,279.3v62.6c-2.8-0.5-5-0.7-7.2-3.7c-1.6-2.3-2.6-5.2-3.5-7.4v-39.3
		c0.8,0.2,1.8,0.3,3,0.4c4-0.2,3.8-6.5,3.8-10C663,279.7,665,278.5,666.9,279.3L666.9,279.3z M656.2,172.1c1.1-1.2,1.3-1.5,0.5-2.5
		c-0.2-0.1-0.4-0.1-0.5,0V172.1L656.2,172.1z M656.2,142.6v-22.9c2.5,0.2,4.5,1.7,5.4,5.5c1.1,4.9-1.1,9.8-3.4,13.5
		C657.5,139.9,656.9,141.2,656.2,142.6z M656.2,38.8v2.6C655.6,40.5,655.5,39.5,656.2,38.8L656.2,38.8z M656.2,59.9v54.6
		c-0.8,0.5-1.6,0.8-2.5,0.9c-0.3,0-0.5,0.1-0.7,0.2V60.2C654.2,60.2,655.2,60.2,656.2,59.9L656.2,59.9z M656.2,119.8v22.9
		c-0.9,1.9-1.9,4-3.3,5.7V120c0.2,0,0.5,0,0.7-0.1C654.6,119.8,655.4,119.7,656.2,119.8L656.2,119.8z M656.2,165.2v2.7
		c-0.5-0.2-1.2-0.2-2,0.1c-0.5,0.2-0.9,0.2-1.2,0.2v-1.9c0.2-0.2,0.6-0.5,1-0.7C654.7,165.3,655.5,165.2,656.2,165.2L656.2,165.2z
		 M656.2,169.6v2.5l-0.1,0.1C655.1,173.3,654.7,169.8,656.2,169.6L656.2,169.6z M656.2,257.7v8.3c-2.4-3.9-4.1-8.1-1.7-8.3
		C655,257.6,655.6,257.6,656.2,257.7L656.2,257.7z M656.2,291.4v39.3c-1-2.4-1.7-3.9-2.5-2.6c-0.9,1.6,0.1,2.7-0.8,2.3V289
		C653.5,290.4,654.3,291,656.2,291.4L656.2,291.4z M652.9,174v-3.1C653.6,171.5,653.9,172.7,652.9,174z M652.9,60.2v55.4
		c-3.4,1-2.9,4.5,0,4.4v28.3c-1,1.3-2.3,2.5-3.8,3.2c-1,0.5-2,0.7-2.9,0.8V60.7c0.9-0.3,1.8-0.5,2.9-0.5
		C650.7,60.2,651.9,60.2,652.9,60.2L652.9,60.2z M652.9,166.3v1.9C652.1,168.1,652.1,167.2,652.9,166.3L652.9,166.3z M652.9,170.9
		v3.1c-0.2,0.2-0.3,0.4-0.6,0.6c-2.6,2.4-3.4-4.8-1.1-4.3C651.8,170.1,652.5,170.4,652.9,170.9L652.9,170.9z M652.9,289v41.4
		c-0.5-0.3-1.7-1.1-4.5-2.8c-0.8-0.5-1.5-0.9-2.2-1.2v-47.7c0.1,0,0.2,0.1,0.2,0.1c3,1.5,4.8,3.8,5.8,7.8
		C652.5,287.6,652.7,288.4,652.9,289L652.9,289z M646.2,261.9v-3.5c2,1,4.4,3.9,1.7,3.9C647.4,262.2,646.8,262.1,646.2,261.9z
		 M646.2,60.7v91.7c-1.7,0.2-3.2,0-4.4,0.1V62.8C643,62.5,644.4,61.4,646.2,60.7L646.2,60.7z M646.2,258.4v3.5
		c-2.6-1-4.4-3.9-1.2-3.9C645.4,258,645.8,258.1,646.2,258.4L646.2,258.4z M646.2,278.7v47.7c-1.7-0.8-3.1-1.2-4.4-1.3v-43.3
		C644.3,281.3,643.7,277.6,646.2,278.7L646.2,278.7z M641.8,180.4V177c0.1,0,0.1,0.1,0.2,0.1C643,177.5,644.8,182.1,641.8,180.4
		L641.8,180.4z M641.8,62.8v89.6c-1.1,0.1-2.1,0.4-2.8,1.7c-1.7,3.1-1.2,5-4.4,5.8V56.9c1.8,0.7,3.3,1.7,4,3.6
		C639.6,62.9,640.5,63.2,641.8,62.8L641.8,62.8z M641.8,177v3.4C638.9,178.8,640.3,176.4,641.8,177L641.8,177z M641.8,281.8v43.3
		c-3.3-0.4-5.6,0.7-7.2,1v-41.5c1.4,1.5,1.2,3.7,2.9,3c2.5-1,0.5-5.8,3.8-5.8C641.4,281.8,641.6,281.8,641.8,281.8L641.8,281.8z
		 M634.6,196.1V193c1-0.3,1.7,0.2,1.5,1.3C635.9,195.1,635.3,196.1,634.6,196.1L634.6,196.1z M634.6,176v-11.3
		c0.2,0.3,0.5,0.7,0.7,1.1c1.9,3.8,5.3,9.4,1.5,10.1C635.9,176.1,635.2,176.1,634.6,176L634.6,176z M634.6,56.3
		c0.9,0.1,1.8,0.2,2.8,0.3c4.2,0.5,1.7-4.1-1.6-3.8c-0.4,0-0.8,0-1.2-0.1V56.3z M634.6,52.7v3.6c-1.1-0.1-2.1-0.3-3.1-0.5v-4.4
		C632.6,51.9,633.6,52.5,634.6,52.7L634.6,52.7z M634.6,56.9c-0.9-0.3-2-0.6-3.1-0.7v117.1c0.6,1.3,1.6,2.4,3.1,2.7v-11.3
		c-1.9-2.9-4.5-3.9-0.9-4.5c0.3-0.1,0.6-0.1,0.9-0.2V56.9L634.6,56.9z M634.6,193v3.2c-0.3,0-0.5-0.2-0.8-0.5c-1-1.3-1-2.1,0.4-2.5
		C634.3,193.1,634.5,193,634.6,193L634.6,193z M634.6,284.6v41.5l-0.1,0c-0.7,0.1-1.8,0-2.9-0.2v-42.6
		C633.1,283.4,634,284,634.6,284.6z M631.5,51.3v4.4c-1.4-0.3-2.8-0.8-4.1-1.7v-4.9C628.8,49.6,630.2,50.5,631.5,51.3L631.5,51.3z
		 M631.5,56.2c-1.3-0.2-2.7-0.4-4.1-0.6v110.6c1.4,1.1,3.1,2.2,3.3,4.2c0.1,1.1,0.4,2.1,0.8,2.9V56.2L631.5,56.2z M631.5,283.3V326
		c-1.4-0.2-2.8-0.5-4.1-0.3v-35.9c2-1.6-1.3-6.5,3.5-6.5C631.2,283.3,631.3,283.3,631.5,283.3L631.5,283.3z M627.5,274.6v-2.9
		c1.2-0.6,2.1,0,1.8,1.2C629.1,273.9,628.3,275,627.5,274.6L627.5,274.6z M627.5,240.3v-6.4c2-0.6,3.5,0.5,3.1,2.7
		C630.2,238.3,628.9,240.3,627.5,240.3z M627.5,49.1V54c-0.2-0.1-0.4-0.3-0.6-0.4c-3.1-2.3-4.4-4.7-2.4-4.7
		C625.3,48.5,626.4,48.7,627.5,49.1L627.5,49.1z M627.5,55.6v110.6c-1-0.8-1.8-1.5-2-2.6c-0.3-2.1-0.8-4.4-4.1-5.3V54
		c0.1,0,0.2,0.1,0.4,0.1C623.6,54.9,625.6,55.3,627.5,55.6L627.5,55.6z M627.5,233.8v6.4c-0.5,0-1.1-0.3-1.7-1
		c-2.1-2.6-2-4.2,0.8-5.1C626.9,234,627.2,233.9,627.5,233.8L627.5,233.8z M627.5,271.7v2.9c-0.2-0.1-0.3-0.2-0.5-0.4
		C625.9,272.9,626,272.1,627.5,271.7L627.5,271.7L627.5,271.7z M627.5,289.8v35.9c-1.2,0.1-2.2,0.7-2.5,2c-0.5,2.1-1.9,3.1-3.6,3.5
		v-40c0.6-0.5,1.8-0.8,4.1-0.8C626.4,290.3,627,290.1,627.5,289.8L627.5,289.8z M621.3,261v-3.5c1.6,1.6,2.7,3.6,0.8,3.6
		C621.9,261.1,621.6,261.1,621.3,261L621.3,261z M621.3,224.5v-3.9c1.5,0.7,2.7,2.3,1,3.6C622,224.5,621.7,224.6,621.3,224.5
		L621.3,224.5z M621.3,215.6v-4.9C623,212,623.6,215.2,621.3,215.6L621.3,215.6z M621.3,203.5v-5.2
		C624.4,198.4,623.6,203.8,621.3,203.5L621.3,203.5z M621.3,54v104.2c-0.8-0.2-1.8-0.3-3-0.3c-6,0-7.1,6-3.4,6s-1.5,8.3,1.5,11.7
		c3,3.4,6.4,10.1,3.4,13.2c-3,3-3.8,7.5-6.8,9c-3,1.5-9.4,6.8-14.7,6.8c-0.7,0-1.4,0.1-2.1,0.2V51c1.5-0.3,3.4-0.3,5.9,0.2
		C609.9,52.6,614.8,51.6,621.3,54L621.3,54z M621.3,198.3c0,0-0.1,0-0.1,0c-2.9-0.5-2.1,4.9,0.1,5.2V198.3L621.3,198.3z
		 M621.3,210.7v4.9c-0.3,0-0.6,0.1-1,0c-4.1-0.5-4.7-5.2-0.5-5.4C620.4,210.2,620.9,210.4,621.3,210.7L621.3,210.7z M621.3,220.6
		v3.9c-1.9-0.2-3.6-4.1-1.3-4.2C620.5,220.3,620.9,220.4,621.3,220.6L621.3,220.6z M621.3,257.5v3.5c-2.8-0.8-5.1-5.1-2.7-5.3
		C619.2,255.7,620.4,256.5,621.3,257.5L621.3,257.5z M621.3,291.1v40c-1.4,0.4-3,0.4-4.4,0.2c-3.3-0.2-5.8,2.8-8,1.3
		c-2.3-1.5,1.8-4-0.8-9.8c-2.5-5.8-2.3-12-4-15c-1.8-3,0.5-9.5,6.8-9.8c6.3-0.3,10-1.5,10-3.8C620.9,293,620.5,291.8,621.3,291.1
		L621.3,291.1z M596.3,270.7v-3c3.9,0.5,5.6,3,0.5,3C596.6,270.8,596.4,270.8,596.3,270.7L596.3,270.7z M596.3,256.8v-6.2
		c0.6-0.6,1.4-1.1,2.4-1.7c5.9-3.1,7.8-9.1,11.6-9.1c2.3-0.2,2.4,3.3,1.8,7.3c-0.7,4.1-6.9,14.7-9,14.5c-2.1-0.2-5.4-2-6.5-4.2
		C596.5,257.2,596.4,257,596.3,256.8L596.3,256.8z M596.3,211.7v-4.1c1.8,0.3,2.4,4.9,0.3,4.2C596.5,211.8,596.4,211.8,596.3,211.7
		L596.3,211.7z M596.3,46v-6.9c1.4,0.2,2.9,0.4,4.4,0.4c4.9,0,0.8,5.3-4.1,6.4L596.3,46z M596.3,39.1V46c-4.8,1.2-9.6,4.1-11.8,7.8
		c-2.3,3.8,2.3,4.9,5.3,1.9c2-2,3.4-4.1,6.5-4.7v153.7c-4.9,0.7-10.3,3.5-7.6,8.1c3,5.3,5.3,9,5.6,11.3c0.4,2.3-3.8,4.1-6,8.3
		c-2.3,4.1-5.3,1.9-8.3-1.5c-0.7-0.8-1.4-1.5-2.2-2.2V40c1-3.1,0.2-7.5,4.8-8c6.8,0-0.4,6.4,4.1,6C589.9,37.7,593,38.6,596.3,39.1
		L596.3,39.1z M596.3,207.6c-0.1,0-0.1,0-0.2,0c-2.2,0.3-1.7,3.3,0.2,4.1V207.6L596.3,207.6z M596.3,250.6v6.2
		C595.3,255,594,252.8,596.3,250.6L596.3,250.6z M596.3,267.8v3c-5.3-0.2-7.1-3.2-1.2-3C595.5,267.7,595.9,267.7,596.3,267.8
		L596.3,267.8z M577.8,264.2v-13.4c4.9,3.7,9.3,10.2,9.5,14.1C587.4,269.6,581.9,267.5,577.8,264.2L577.8,264.2z M577.8,247.4
		c2.6,2.2,5.2,6.4,5.2,1.8c0-3.8-2.7-7.9-5.2-10.4V247.4z M577.8,40v188.7c-2.6-2.4-5.3-3.9-5.3-1.5c0,3,0,8.6,2.6,9.8
		c0.7,0.3,1.7,1,2.7,2v8.6c-0.4-0.3-0.8-0.6-1.2-0.8c-3-1.5-1.9-7.9-4.9-9.8c-3-1.9-4.5-3.8-1.9-9c2.6-5.3-0.4-8.6-4.9-8.6
		c-3.8,0-2-4.9-3.6-7.7V41.3c4.6-0.7,5.5,1.7,7.8,0.5c2.5-1.3,7.2,1.8,8.5-1.3C577.7,40.3,577.7,40.1,577.8,40L577.8,40z
		 M577.8,250.8v13.4c-1-0.8-2-1.7-2.7-2.6c-3.7-4.3-10.2-13.2-4.6-13.7C572.8,247.8,575.3,248.9,577.8,250.8L577.8,250.8z
		 M561.3,238.3c0.7,0,1.3-1,1.5-1.9c0.2-1.1-0.5-1.6-1.5-1.3V238.3L561.3,238.3z M561.3,24.6v-5.9c0.1,0,0.3,0,0.4,0
		c2.6-1.8,12.5-1.5,9-0.7c-3.5,0.7-4.1,7-7.9,7C562.3,25,561.8,24.9,561.3,24.6z M561.3,18.7v5.9C559,23.2,559,18.9,561.3,18.7
		L561.3,18.7z M561.3,41.3v170.2c-0.3-0.5-0.7-1-1.3-1.3c-3.8-2.3-7.9-4.9-13.2-1.9c-5.3,3-11.3,8.6-13.2,9
		c-0.3,0.1-0.5,0.2-0.7,0.5V59.5c0.9,1.1,1.5,2.5,1.9,3.7c0.8,2.2,5.6,6.5,7.4,9.4c1.8,2.9,3.2,3.8,3.2,1.1c0-2.7-2.4-6.2-3.9-7.3
		c-1.6-1.1,0.5-7.3-3.1-8.8c-3.5-1.5-5.9-5.9-1.4-6.5c4.5-0.6,5.4-1,7.6-3.2c2.2-2.2,9.2-4.8,15.1-6.3
		C560.4,41.5,560.9,41.4,561.3,41.3L561.3,41.3z M561.3,235.2v3.2c-0.3,0-0.5-0.2-0.8-0.5c-1-1.3-1-2.1,0.4-2.5
		C561.1,235.3,561.2,235.2,561.3,235.2L561.3,235.2z M533.1,238.8v-6.4c2.4,0.3,4,5.2,0.9,6.3C533.6,238.8,533.4,238.9,533.1,238.8z
		 M533.1,59.5v158.4c-0.9,1.6-0.3,6.4-1.2,9.6c-1.1,3.8-3,6.8-5.6,6.4c-1.7-0.2-3.9-4.1-6.1-7.9V74.7c0.2-0.1,0.5-0.2,0.9-0.2
		c2.6,0,5.3,4.5,9,4.5c3.8,0,0.4-5.6-3.8-7.5c-2-0.9-4.4-1-6.1-1.3V56.8c2.2-0.2-2.9,8.3,3.9,5.3c7.5-3.4,1.5-3,5.3-3.8
		C531,57.9,532.2,58.5,533.1,59.5L533.1,59.5z M533.1,232.4c-0.2,0-0.4,0-0.6,0c-3.3-0.5-2.2,6.1,0.6,6.4V232.4L533.1,232.4z
		 M520.1,251.5v-2.8l0.1,0c1.2-0.6,2.2-0.1,1.9,1.1C521.9,250.9,521,252.1,520.1,251.5L520.1,251.5z M520.1,246v-2
		c0.3,0.2,0.4,0.6,0.3,1.1C520.3,245.5,520.2,245.8,520.1,246L520.1,246z M520.1,242.4v-3.2c1-0.3,1.7,0.2,1.5,1.3
		C521.4,241.5,520.8,242.5,520.1,242.4z M520.1,56.8v13.4c-0.5-0.1-1-0.1-1.3-0.3V57.4c0.1-0.1,0.2-0.1,0.3-0.2
		C519.5,56.9,519.9,56.8,520.1,56.8L520.1,56.8z M520.1,74.7v151.2c-0.4-0.8-0.9-1.5-1.3-2.2V78C519.6,76.6,519.4,75.2,520.1,74.7
		L520.1,74.7z M520.1,239.3v3.2c-0.3,0-0.5-0.2-0.8-0.5c-0.2-0.3-0.4-0.5-0.5-0.8V240c0.2-0.2,0.5-0.4,0.9-0.5
		C519.8,239.4,520,239.3,520.1,239.3L520.1,239.3z M520.1,244.1v2c-0.3,0.6-0.8,1.1-1.3,1v-3.1C519.3,243.7,519.8,243.8,520.1,244.1
		L520.1,244.1z M520.1,248.7v2.8c-0.1-0.1-0.2-0.2-0.3-0.3C518.7,249.9,518.8,249.1,520.1,248.7L520.1,248.7z M518.8,238.2v-1.6
		c0.2,0.2,0.2,0.6,0.2,1C518.9,237.9,518.8,238,518.8,238.2z M518.8,57.4V70c-0.9-0.3-1.4-0.8-0.8-1.9c0.7-1.5-0.1-3.5-0.5-5.4v-3.7
		C517.7,58.4,518.1,57.8,518.8,57.4L518.8,57.4z M518.8,78v145.7c-0.4-0.7-0.9-1.4-1.3-2.1V79.5C518.1,79,518.5,78.5,518.8,78
		L518.8,78z M518.8,236.7v1.6c-0.3,0.7-0.8,1.3-1.3,1.3v-3.2C518,236.2,518.5,236.3,518.8,236.7L518.8,236.7z M518.8,240v1.2
		C518.5,240.7,518.5,240.3,518.8,240L518.8,240z M518.8,243.9v3.1c-0.2,0-0.5-0.2-0.7-0.5c-0.3-0.4-0.5-0.7-0.6-1v-0.7
		c0.1-0.3,0.5-0.5,1-0.7C518.6,244,518.7,244,518.8,243.9L518.8,243.9z M517.4,228.5v-2.5c0.4,0.2,0.7,0.6,0.5,1.3
		C517.9,227.7,517.7,228.1,517.4,228.5z M517.4,58.9v3.7C517.1,61.3,516.9,60,517.4,58.9L517.4,58.9z M517.4,79.5
		c-0.5,0.3-1,0.7-1.7,1c-5.3,2.3-7.1-0.4-4.5-3.8c2.6-3.4,4.1-5.6,3-11.7c-1.1-6,0-11.7-3.8-10.9c-3.8,0.8-6.4,10.2-6.4,13.5
		c0,3.4,2.6,4.5-1.9,4.5c-4.5,0-6-4.5-9.4-4.5c-3.4,0-0.8,3.8-4.1,3.8c-2.5,0-6.3,0.8-10,2v81.2c10.5,2.8,6.9,8.5,0,10.7v28.4
		c0.9,0.2,1.9,0.6,2.9,1.3c4.1,3,3,0,9.8,0c6.8,0,6.4-0.8,11.7,3.8c5.3,4.5,8.3,6,11.7,6c3.4,0-1.5,11.3,1.9,15.4
		c0.3,0.4,0.6,0.8,1,1.3V79.5L517.4,79.5z M517.4,225.9v2.5c-0.5,0.6-1.1,0.9-1.8,0.1c-1-1.3-1-2.1,0.4-2.5
		C516.6,225.8,517.1,225.8,517.4,225.9L517.4,225.9z M517.4,236.4v3.2c-0.3,0-0.5-0.2-0.8-0.5c-1-1.3-1-2.1,0.4-2.5
		C517.1,236.5,517.3,236.4,517.4,236.4L517.4,236.4z M517.4,244.8v0.7C517.3,245.2,517.3,245,517.4,244.8L517.4,244.8z M478.6,265.5
		v-3.2c1-0.3,1.7,0.2,1.5,1.3C479.9,264.5,479.3,265.5,478.6,265.5L478.6,265.5z M478.6,214.8v-18c2.6,0.1,5.1,1.2,6.6,2.9
		c2.3,2.6-5.3,11.7-6.4,14.7C478.8,214.5,478.7,214.6,478.6,214.8L478.6,214.8z M478.6,65.1V48.7c3.8-2.6,2.6-9.9,10.2-9.9
		c8.5,0,3.4-4.7,13.2-2.1c5.5-0.4,0.8,6.4-3.8,6.4c-4.7,0-15.7,9.3-17,14C480.2,60.3,480.2,64.4,478.6,65.1z M478.6,48.7v16.5
		c-0.6,0.3-1.3,0-2.4-0.8V49.6c0.2-0.1,0.5-0.1,0.7-0.2C477.6,49.2,478.1,49,478.6,48.7L478.6,48.7z M478.6,73.5v81.2l0,0
		c-0.9-0.2-1.7-0.5-2.4-0.8V74.3C477,74,477.8,73.7,478.6,73.5L478.6,73.5z M478.6,165.5v28.4c-0.8-0.2-1.6-0.2-2.4-0.3v-27.5
		C477,165.9,477.8,165.7,478.6,165.5L478.6,165.5z M478.6,196.7v18c-0.5,0.7-1.3,1.2-2.4,1.8V197C477,196.8,477.8,196.7,478.6,196.7
		L478.6,196.7z M478.6,262.3v3.2c-0.3,0-0.5-0.2-0.8-0.5c-1-1.3-1-2.1,0.4-2.5C478.3,262.4,478.5,262.4,478.6,262.3L478.6,262.3z
		 M476.2,240.7v-3.2c1-0.3,1.7,0.2,1.5,1.3C477.5,239.8,476.9,240.8,476.2,240.7z M476.2,49.6v14.7c-0.2-0.1-0.4-0.3-0.6-0.5
		C471.1,59.8,471,51.4,476.2,49.6L476.2,49.6z M476.2,74.3v79.6c-7.2-2.9-1.3-7.6-4.4-9.2V72.5c3.6-0.4-1.7,4.2,2.9,2.4
		C475.2,74.7,475.7,74.5,476.2,74.3L476.2,74.3z M476.2,166.1v27.5c-1.6-0.2-3.1-0.5-4.4-2v-25.2
		C473.3,166.4,474.8,166.3,476.2,166.1L476.2,166.1z M476.2,197v19.6c-1.2,0.6-2.8,1.2-4.4,1.8v-21.3c0.9,0.6,1.9,0.7,2.9,0.3
		C475.2,197.2,475.7,197.1,476.2,197L476.2,197z M476.2,237.6v3.2c-0.3,0-0.5-0.2-0.8-0.5c-1-1.3-1-2.1,0.4-2.5
		C475.9,237.7,476.1,237.6,476.2,237.6L476.2,237.6z M471.8,229.3v-3.2c1-0.3,1.7,0.2,1.5,1.3C473.1,228.4,472.5,229.4,471.8,229.3z
		 M471.8,72.5v72.3c-1.2-0.6-3.8-0.8-9-0.2c-1.1,0.8-2,1.6-2.7,2.5V78.3c2.8-2.3,6.2-4.8,10.8-5.7C471.3,72.5,471.6,72.5,471.8,72.5
		L471.8,72.5z M471.8,166.4v25.2c-0.4-0.5-0.9-1.2-1.2-2.1c-2.6-6-7.5-4.9-5.3-1.1c1.7,2.8,3.9,7.1,6.5,8.7v21.3
		c-2.9,1.1-6,2-7.6,3.1c-1.3,0.8-2.7,2.2-4.1,3.2v-69.5c0.4,0.5,0.9,1,1.5,1.4c5.1,4.4-2.5,7.6,8.3,9.5
		C470.5,166.3,471.2,166.3,471.8,166.4L471.8,166.4z M471.8,226.2v3.2c-0.3,0-0.5-0.2-0.8-0.5c-1-1.3-1-2.1,0.4-2.5
		C471.5,226.3,471.7,226.2,471.8,226.2L471.8,226.2z M460.1,311.5v-26.7c1.7-2.1,3.5-4,4.9-4.1c4.4-0.2,4.4,5.1,1.5,7.5
		c-2.9,2.4,2.9,14.6-0.2,15.8C464.1,304.8,462.3,308.9,460.1,311.5L460.1,311.5z M460.1,244.8c2.9-3.8,5.6-8.1,7.1-11.6
		c3-7.1-1.5-6.8-5.6-5.3c-0.5,0.2-0.9,0.3-1.4,0.4V244.8z M460.1,78.3V147c-2.2,2.6-2.5,5.2,0,8.2v69.5c-2.3,1.6-4.7,2.1-6.8-2.8
		c-0.2-0.5-0.4-0.9-0.6-1.4V81.2c3.9-0.2-1.6-9,2.5-9c4.1,0,0.8,9.8,3.8,7.1C459.3,79,459.7,78.7,460.1,78.3L460.1,78.3z
		 M460.1,228.2c-2.4,0.4-4.9-0.2-7.5-1.6v26.5c2.2-1.9,4.9-4.9,7.5-8.3V228.2L460.1,228.2z M460.1,284.8v26.7
		c-0.9,1.1-1.9,1.9-3.1,2.2c-3.9,0.7-2.2-8.2-4.4-10.7l0,0v-8.2c0.5-1.4,1.2-2.6,2-3.2C455.8,290.7,458,287.5,460.1,284.8
		L460.1,284.8z M452.7,282.2v-3.2c1-0.3,1.7,0.2,1.5,1.3C454,281.2,453.4,282.2,452.7,282.2z M452.7,81.2v139.2
		c-3.6-7.5-10.4-15.6-12.9-22.3c-2.6-7.1-5.3-11.7-7.9-11.3c-2.6,0.4,3.4,13.9,6,18.8c2.6,4.9,5.6,12.8,10.2,17.3
		c1.5,1.5,3.1,2.7,4.6,3.6v26.5c-0.3,0.3-0.6,0.5-0.9,0.7c-4.5,3.4-5.6,11.3-8.3,12.4c-2.6,1.1,0.8,3,2.3,6c1.5,3,1.9,12.8,0,16.5
		c-1.9,3.8-5.3,8.3-8.3,8.6c-3,0.4-3.4,5.6-1.1,7.1c2.3,1.5-0.8,4.9-5.3,5.3c-4.5,0.4,0.4,13.9-3.8,14.3c-4.1,0.4-9,5.6-15,6.4
		c-5.5,0.7-11.9,2.9-15-0.4V181.4c2.6,1.2,5,1.6,6-0.6c1.5-3.4,6.4-2.3,10.5-1.5c4.1,0.8,11.3,2.3,15,1.9c3.8-0.4,7.5-3.8,7.9-7.1
		c0.4-3.4-4.9-4.1-11.3-4.1c-6.4,0-9-1.1-7.9-4.9c1.1-3.8,3-7.1,6.4-8.6c3.4-1.5,6.4-2.3,9.8-2.3c3.4,0,7.9,2.6,12,2.3
		c4.1-0.4,2.6-4.1-1.5-6.4c-4.1-2.3-4.9-5.6-3-7.5c1.9-1.9,0.8-3.8-2.6-1.9c-3.4,1.9-8.3,6.8-9.4,3.8c-1.1-3-9.4-0.4-9.4,4.1
		c0,4.5,1.1,5.3-0.4,8.3c-1.5,3-4.9,5.3-7.9,4.9c-3-0.4,0.4,5.3-2.6,6.8c-3,1.5-4.5-2.3-6.4-6c-1.9-3.7-3.4-6-5.2-8.2v-37
		c2.5,0.8,4.6,2,6.7,0.1c3-2.6-2.3-7.1,2.3-7.1c4.5,0,8.3,0.4,4.9-3c-3.4-3.4,1.1-1.5,4.9-3.4c3.8-1.9,3.4-4.9-1.1-4.1
		c-4.5,0.8-8.3,3.4-10.2-1.1c-1.9-4.5,3.8-9.8,6.8-13.2c3-3.4-4.9-4.9-6-0.8c-1.1,4.1-5.6,6-7.1,10.1c-1.5,4.1,4.1,7.9,1.1,10.9
		c-0.9,0.9-1.6,1.8-2.2,2.6V68.5c0.9-0.6,1.8-0.9,2.6-1.1c5.3-1.1,12.8-7.9,18.8-5.3c6,2.6,8.3,1.9,12.8,5.3c4.5,3.4,4.1,5.3,9,6
		c4.9,0.8,6,7.1,0,7.1c-6,0-9.8-3.4-12-1.5c-2.3,1.9,2.3,3.8,4.5,6.4c2.3,2.6,6.4,4.5,8.3,3.4c1.9-1.1-3.8-4.9,0.4-3.8
		c4.1,1.1,8.3,1.5,5.6-0.8c-2.6-2.3,1.1-3,5.3-3C452.6,81.2,452.6,81.2,452.7,81.2L452.7,81.2z M452.7,279.1c-0.1,0-0.3,0.1-0.4,0.2
		c-1.4,0.4-1.4,1.2-0.4,2.5c0.3,0.3,0.6,0.5,0.8,0.5V279.1L452.7,279.1z M452.7,294.8c-1,2.8-1.4,6.5,0,8.2V294.8L452.7,294.8z
		 M397.3,158.9c0.3-1.4,0.4-2.9,0-3.8V158.9L397.3,158.9z M397.3,37.1V22.1c0.6,0.3,1.4,0.6,2.3,0.9c8.9,0,6.4,2.1,10.6,5.1
		c4.2,3-1.3,10.2-7.2,5.9C398.1,30.6,399.5,36.9,397.3,37.1z M397.3,22.1v14.9c-0.5,0-1.1-0.2-2-0.9c-5.1-3.8-5.9-6.8-0.4-7.2
		c5.5-0.4-5.1-4.7-7.6-1.7c-2.5,3-8.1-7.2-0.4-7.2C393.5,20.1,393.1,20.4,397.3,22.1L397.3,22.1z M397.3,68.5v39.9
		c-1.6,2.1-2.7,3.8-4.5,3.8c-2.6,0-4.9,5.6-6,1.9c-1.1-3.8-3.4-7.9-6-6c-2.6,1.9-2.3,8.3-5.6,3c-3.4-5.3-6.4-12.8-2.6-16.9
		c3.8-4.1,9-7.5,12-11.7C387,78.9,392.5,71.4,397.3,68.5L397.3,68.5z M397.3,117.2c-1.1-0.3-2.2-0.6-3.4-0.6
		c-4.1,0-5.3,1.9-10.2,1.9c-4.9,0-3-3.4-6-3.4c-3,0-2.3,5.6-4.9,8.3c-2.3,2.3-6,5.2-9.9,6.6v30.1c1.8-0.6,2.3-4,1.3-7.8
		c-1.1-4.1,6-2.6,12-2.6c6,0,6.8,4.1,10.9,5.6c4.1,1.5,4.5,5.3,4.5,10.5c0,5.3,4.1-1.9,4.9-4.1c0.2-0.7,0.6-1.7,0.8-2.8v-3.8
		c-0.3-0.6-0.7-0.9-1.5-0.9c-3,0-3.8-1.1-6.4-3.8c-2.6-2.6-0.4-4.1,2.3-1.9c2.6,2.3,3.8,3.4,5.6,5.6l0,0V117.2L397.3,117.2z
		 M397.3,181.4v148.6c-0.3-0.3-0.5-0.7-0.8-1.1c-2.6-4.9,1.9-7.9-2.6-13.2c-4.5-5.3-1.9-9.8-5.3-14.7c-3.4-4.9-6.8-13.5-3.4-18
		c3.4-4.5,4.9-7.9,1.9-9c-3-1.1,1.5-6.4-2.6-9c-4.1-2.6-6.8-9.8-5.3-13.2c1.5-3.4,1.9-9-3-9c-3.6,0-8.9-2.1-13.3-2.5v-71.7
		c2.2-0.9,4.5-1.7,8.1-1.7c7.1,0,12.4-2.6,11.7,3c-0.8,5.6,6.4,6.8,10.1,9C394.2,179.8,395.8,180.8,397.3,181.4L397.3,181.4z
		 M362.9,126.9v-3.2c1-0.3,1.7,0.2,1.5,1.3C364.2,125.9,363.6,126.9,362.9,126.9z M362.9,123.8v3.2c-0.3,0-0.5-0.2-0.8-0.5
		c-1-1.3-1-2.1,0.4-2.5C362.6,123.9,362.8,123.8,362.9,123.8L362.9,123.8z M362.9,130v30.1c-0.2,0.1-0.4,0.1-0.6,0.1
		c-0.6,0-1.3,0-1.9,0.1v-29.7c0.2,0,0.5-0.1,0.8-0.2C361.8,130.3,362.3,130.2,362.9,130L362.9,130z M362.9,168.7v71.7
		c-0.9-0.1-1.7-0.1-2.5-0.1v-70.8C361.3,169.3,362.1,169,362.9,168.7L362.9,168.7z M360.4,114.3v-3.2c1-0.3,1.7,0.2,1.5,1.3
		C361.8,113.3,361.1,114.3,360.4,114.3z M360.4,111.2v3.2c-0.3,0-0.5-0.2-0.8-0.5c-1-1.3-1-2.1,0.4-2.5
		C360.2,111.3,360.3,111.2,360.4,111.2L360.4,111.2z M360.4,130.7v29.7c-1.6,0.3-2.9,1-2.6,2.9c0.4,2.6-0.8,2.3-2.6,3.8
		c-0.9,0.7-2,1.5-3.3,2v-18.1c3.1-1,5-4.3,2.2-6.8c-3.4-3-2.3-7.1-0.4-10.5C355.4,130.3,356.5,131.5,360.4,130.7L360.4,130.7z
		 M360.4,169.5v70.8c-0.7,0-1.3,0.1-1.9,0.3c-2.5,0.8-4.7,1.4-6.7,2.1v-72.1c0.9-0.2,2-0.3,3.3-0.3C357.3,170.3,359,170,360.4,169.5
		L360.4,169.5z M351.8,130.7c1.3-0.6,2.8-1.1,4.4-1.1c5.5,0-0.4-9.3,0.4-12.3c0.8-2.9,0.5-10-4.8-9.8V130.7z M351.8,107.5v23.2
		c-3.3,1.4-5.6,3.3-6.2-0.6c-0.8-5.5-1.3-5.1,3.8-7.2c5.1-2.1-2.1-15.7,1.7-15.3C351.4,107.6,351.6,107.5,351.8,107.5L351.8,107.5z
		 M351.8,150.9v18.1c-1.4,0.5-3,0.5-4.6-0.5c-1.5-0.9-3.8-0.7-5.6-0.6v-17.4c3.4,0,4.3,0.7,8.3,0.7
		C350.6,151.2,351.2,151.1,351.8,150.9L351.8,150.9z M351.8,170.6v72.1c-1.9,0.6-3.7,1.1-5.3,1.7c-1.3,0.4-3-0.3-4.9-1.7v-68.2
		c0.7-0.3,1.4-0.6,2.2-0.8C346.9,173.1,348,171.3,351.8,170.6L351.8,170.6z M341.7,128.9c0.9-0.3,1.7-1,2.3-2.2
		c1.7-3.8,1.7-10.6-1.7-10.2c-0.2,0-0.4,0-0.6-0.1V128.9L341.7,128.9z M341.7,64.4V60c0.3,0,0.6,0,1,0c3,0,5.1,5.1,1.3,5.1
		C343.1,65.1,342.3,64.8,341.7,64.4z M341.7,60v4.4C339.5,63.1,338.8,60.3,341.7,60L341.7,60z M341.7,116.4v12.4
		c-1.9,0.6-3.8-0.9-3.3-3.5C339.2,121.7,336.5,116,341.7,116.4L341.7,116.4z M341.7,150.4v17.4c-1.9,0-3.4-0.1-3.4-2
		c0-3.8-2.6-5.3-0.8-8.6c1.9-3.4,0-6.8,3.8-6.8C341.4,150.4,341.5,150.4,341.7,150.4L341.7,150.4z M341.7,174.5v68.2
		c-3-2.2-6.4-5.9-9.4-8.9c-2.2-2.2-5.2-4.9-7.5-7.5v-26.1c1.7-3.2,2.9-11.1,6.4-11.4c3.8-0.4,6.4-4.5,6.4-7.9
		C337.5,178.2,339.1,175.8,341.7,174.5L341.7,174.5z M324.7,179.1c0.7,0,1.3-1,1.5-1.9c0.2-1.1-0.5-1.6-1.5-1.3V179.1L324.7,179.1z
		 M324.7,90.3v-9c3.9,0,5.5,3.5,3.1,6.3C327,88.5,325.9,89.5,324.7,90.3L324.7,90.3z M324.7,19.5v-5.9c4.3-0.1,12.1,4.7,6.7,5.3
		C329.4,19.1,326.9,19.3,324.7,19.5z M324.7,13.6v5.9c-0.8,0.1-1.6,0.2-2.3,0.3v-5.5c0.3-0.1,0.6-0.3,0.8-0.4
		C323.6,13.7,324.1,13.6,324.7,13.6L324.7,13.6z M324.7,81.3v9c-0.7,0.5-1.5,0.9-2.3,1.2v-9.9C323.2,81.4,324,81.3,324.7,81.3
		L324.7,81.3z M324.7,176v3.2c-0.3,0-0.5-0.2-0.8-0.5c-1-1.3-1-2.1,0.4-2.5C324.4,176.1,324.6,176,324.7,176L324.7,176z
		 M324.7,200.2v26.1c-0.9-1-1.7-2-2.3-3v-5.5c2.9-2.8,1.6-3.7,0-5.6v-8c0.6-1.3,1.3-2.5,2-3.4C324.5,200.6,324.6,200.4,324.7,200.2
		L324.7,200.2z M322.4,188.3v-3.2c0.9-0.2,1.5,0.4,1.3,1.4C323.5,187.3,323,188.2,322.4,188.3z M322.4,14.3v5.5
		c-3.2,0.4-5.2,1.1-3.4,2.7c3.2,2.9-5.3,5.3-0.7,7.8c4.6,2.5,3.2,8.2-1.4,8.2c-4.6,0,0.4,3.2-3.2,6.8c-3.6,3.6-2.5,6.1-7.5,6.1
		c-5,0,6.1,7.8,0.4,7.8s-7.5,7.1-1.8,6.4c5.7-0.7,5.3,1.8-0.7,4.6c-6.1,2.9-15.7,2.9-18.5,7.5c-2.9,4.6-13.5,4.3-13.5,8.6
		c0,4.3-1.8,20-10,17.1c-8.2-2.9-10-11.1-13.2-16c-3.2-5,1.8-10.3-1.4-12.1c-3.2-1.8,7.1-10,3.6-7.5c-3.6,2.5-9.3-1.1-4.3-2.1
		c5-1.1,3.2-6.1-0.4-5c-3.6,1.1-7.5-0.7-2.9-4.3c4.6-3.6,2.5-2.5-0.7-3.6c-1.5-0.5-2-2.3-2.8-4.3V10.8c7.1,1.1,7.6,5.9,11.7,4.9
		c4.3-1.1-5-10.3,5.7-3.9c10.7,6.4,2.9-0.7,7.5-0.7c4.6,0-3.2-6.8,5-6.4C278,5,278,0,288.3,0c12.5,0,34.9,10.3,23.5,8.9
		c-11.4-1.4-26.7-1.8-19.6,2.5c7.1,4.3,8.6-3.9,11.1,0c2.5,3.9,6.8,0,9.6,2.5C315.5,16.2,319.1,15.8,322.4,14.3L322.4,14.3z
		 M322.4,81.6l-0.2,0c-3-0.4-4.2,0-8.1-1.7c-3.8-1.7-7.6,5.5-1.7,10.2c3.4,2.7,7,2.6,9.9,1.3V81.6L322.4,81.6z M322.4,185.1v3.2
		c-0.3,0.1-0.7,0-1-0.5c-1-1.3-1-2.1,0.4-2.5C322,185.3,322.2,185.2,322.4,185.1L322.4,185.1z M322.4,204.1v8
		c-0.2-0.3-0.5-0.6-0.7-0.9C320.5,209.6,321.2,206.7,322.4,204.1L322.4,204.1z M322.4,217.8v5.5c-1.3-2.1-1.7-4-0.3-5.2
		C322.2,218,322.3,217.9,322.4,217.8L322.4,217.8z M239.9,332v-93.7c2.6,1.7,5.1,3,7.4,3c4.6,0,3.9,4.6,3.9,9.3
		c0,4.6,6.1,4.6,12.5,6.8c6.4,2.1,9.3,1.8,15.7,5.7c6.4,3.9,7.8,6.1,4.6,10.7c-3.2,4.6-10,11.8-10.3,18.5
		c-0.4,6.8-4.6,13.2-9.3,13.9c-4.6,0.7-8.9,4.3-8.9,7.5c0,3.2-4.3,1.8-4.6,7.8c-0.4,6.1-5.7,12.8-8.2,11.8
		C242,333.1,241,332.6,239.9,332L239.9,332z M239.9,142.1v-11.5c3.4,1,4.2,4.4,5.5,7.2c1.6,3.5,0.5,6.9-4.8,4.5
		C240.3,142.3,240.1,142.2,239.9,142.1L239.9,142.1z M317.6,177.8c1.2-0.6,2.2-0.1,1.9,1.1c-0.2,1.2-1.3,2.6-2.3,1.4
		C316.1,179,316.2,178.2,317.6,177.8z M239.9,10.8v37.7c-0.9-2.1-2.1-4.3-5.4-5c-3.2-0.7-6.8-0.4-10.1-0.4V16
		c7.8-0.6,6.6-6,14.3-5.3C239.1,10.7,239.5,10.8,239.9,10.8L239.9,10.8z M239.9,130.6v11.5c-4.9-2.1-7.5-2.3-5.5-7.2
		c2.1-5.1-0.5-4.8,2.9-4.5C238.3,130.3,239.2,130.4,239.9,130.6L239.9,130.6z M239.9,238.3V332c-3.4-1.6-7.7-3.5-5,0.3
		c3.6,5,4.3,7.5,0.4,9.3c-3.6,1.6-8.1,8.1-10.8,7.2V230.3c2.2,0.3,4.6,0.9,7.2,2.5C234.6,234.6,237.3,236.7,239.9,238.3L239.9,238.3
		z M224.4,149.6V145c2.9-0.2,3.4,4.7,0.6,4.7C224.8,149.6,224.6,149.6,224.4,149.6L224.4,149.6z M224.4,133.3c1,0.9,1.6,1.3,2.6-0.4
		c1.4-2.5,4.3-4.3,10.3-4.3c6.1,0-2.9-6.1-1.8-8.6c1.1-2.5-4.3-3.6-7.1-6.4c-2.1-2.1-2.3-7.2-4-9.9V133.3L224.4,133.3z M224.4,82.8
		v-4.5C225.7,80.3,225.9,82.4,224.4,82.8L224.4,82.8z M224.4,10.4c0.4-0.1,0.7-0.3,1.1-0.4c2.4-0.8,1.4-1.7-1.1-2.3V10.4z
		 M224.4,7.6v2.8c-1.8,0.7-3.3,1.4-4.6,2.1V6.8C221.5,7,223.2,7.3,224.4,7.6L224.4,7.6z M224.4,16v27.1c-1.6,0-3.2,0-4.6-0.2V27.6
		c2.2-1.3,1.7-3.8,0-5v-6.3c0.9-0.2,2-0.3,3.3-0.3C223.5,16,224,16,224.4,16L224.4,16z M224.4,78.4v4.5c-0.4,0.1-1,0.1-1.7-0.1
		c-1.1-0.3-2.1-0.5-2.9-0.5v-7.5c0.1,0.1,0.3,0.1,0.4,0.2C222,75.5,223.5,76.9,224.4,78.4L224.4,78.4z M224.4,103.8v29.5
		c-0.5-0.5-1.2-1.2-2.1-1.8c-0.6-0.4-1.5-0.5-2.6-0.3v-29.1c0.4-0.2,1-0.2,1.9-0.2C222.9,102.1,223.8,102.8,224.4,103.8L224.4,103.8
		z M224.4,145v4.6c-2.5-0.5-3.6-4-0.7-4.5C224,145,224.2,145,224.4,145L224.4,145z M224.4,230.3v118.4c-0.2-0.1-0.4-0.2-0.6-0.4
		c-2.5-2.5-2.1,0.4-2.1,2.9c0,1.8-0.4,5-1.9,6.6V230.2C221.2,230.1,222.7,230.1,224.4,230.3L224.4,230.3z M219.8,214.8v-0.9
		C220.1,214.2,220.2,214.6,219.8,214.8L219.8,214.8z M219.8,151.3c0.2,0,0.3,0,0.5,0c2,0,1.7-3.6-0.5-3.5V151.3L219.8,151.3z
		 M219.8,145.3c0.1-0.2,0.3-0.3,0.4-0.5c2-2.5,1.2-5.1-0.4-7.1V145.3L219.8,145.3z M219.8,95v-6.6C221.8,91,221.3,93.8,219.8,95z
		 M219.8,6.8v5.7c-1.4,0.8-2.6,1.6-3.6,2.6V6.4C217.4,6.5,218.6,6.6,219.8,6.8L219.8,6.8z M219.8,16.3v6.3c-0.3-0.2-0.6-0.4-1-0.5
		C216,21.2,214.3,17.4,219.8,16.3L219.8,16.3z M219.8,27.6V43c-1.3-0.2-2.6-0.5-3.6-1.1v-3.7c1.8-1.6,4.7-2.9,1.9-3.2
		c-0.6,0-1.2,0-1.9,0v-6.4C217.8,28.4,219,28.1,219.8,27.6L219.8,27.6z M219.8,74.7v7.5c-3.2-0.1-4.6,1.7-1,5.1
		c0.4,0.4,0.7,0.7,1,1.1V95c-0.8,0.7-2,1-3.1,0.5l-0.5-0.2V68.5C216.9,71,217.6,73.6,219.8,74.7L219.8,74.7z M219.8,102.1v29.1
		c-1.2,0.1-2.5,0.5-3.6,1v-25.8c0.2,0,0.3-0.1,0.5-0.1C219.5,105.4,218,102.8,219.8,102.1L219.8,102.1z M219.8,137.7v7.6
		c-1.2,1.4-2.4,2.4-3.6,3.1V135C217.4,135.5,218.8,136.5,219.8,137.7L219.8,137.7z M219.8,147.9c-0.2,0-0.3,0-0.5,0.1
		c-2.2,0.4-1.3,2.9,0.5,3.3V147.9L219.8,147.9z M219.8,213.9v0.9c-0.3,0.2-0.9,0.3-1.8,0.2c-0.6,0-1.2-0.1-1.8-0.2v-2.2l0.1,0
		C217.7,212.6,219.2,213.3,219.8,213.9L219.8,213.9z M219.8,230.2v127.5c-0.5,0.6-1.2,0.9-2.1,0.9c-3.2,0,2.9,8.9,1.1,10
		c-0.6,0.4-1.6,1.7-2.6,3.3V230.3c0.3,0,0.6,0,0.9,0C217.8,230.3,218.8,230.2,219.8,230.2z M216.1,6.4v8.7c-0.9,0.8-1.6,1.7-2.3,2.7
		c-1.2,1.7-3.8,3.4-6.6,4.6V6.5c0.5,0,1-0.1,1.6-0.1C210.7,6.2,213.4,6.2,216.1,6.4L216.1,6.4z M216.1,28.5v6.4
		c-3,0.2-6.7,1-8.9,0.7V30c1.3-1.5,3.2-1.5,8.4-1.5C215.8,28.5,216,28.5,216.1,28.5L216.1,28.5z M216.1,38.1v3.7
		c-0.1,0-0.1-0.1-0.2-0.1C214,40.5,214.8,39.2,216.1,38.1L216.1,38.1z M216.1,68.5v26.9c-1.9-0.8-5.3-2.1-8.9-3.2V61.6
		c1.8,0.5,3.3,0.8,4.5,1.1C214.4,63.4,215.3,65.9,216.1,68.5L216.1,68.5z M216.1,106.4v25.8c-2.5,1-4.2,2.2-2.3,2.2
		c0.7,0,1.5,0.2,2.3,0.6v13.4c-2.6,1.6-5,2.2-6.6,3.8c-1,1-1.6,2.3-2.3,3.4V97.3c2.4,1.7,4.1,3.6,4.1,5
		C211.3,105.4,212.9,107.1,216.1,106.4L216.1,106.4z M216.1,212.6v2.2C213.1,214.2,211.8,212.4,216.1,212.6L216.1,212.6z
		 M216.1,230.3V372c-2.1,3.3-4.5,7.7-4.5,7.7s0.4,5-3.6,1.8c-0.3-0.2-0.6-0.5-0.9-0.9v-68c1.8-1.8,4-3.2,2.7-5.6
		c-2.1-3.9,0.4-8.6-2.1-10.7c-0.2-0.1-0.4-0.3-0.5-0.5v-66.3C209.2,231.2,213.1,230.5,216.1,230.3L216.1,230.3z M207.2,214.4v-4.9
		c0.3,0,0.7,0,1.1,0c3.1-0.2,2.8,5-0.6,5C207.6,214.5,207.4,214.5,207.2,214.4z M207.2,6.5v15.9c-2.9,1.2-6,2-8,1.8
		c-3.9-0.4-1.4,9.3-4.3,9.3c-0.2,0-0.4,0-0.6,0.1V5c0.8,0,1.6,0,2.4,0C201.9,5,202,6.8,207.2,6.5L207.2,6.5z M207.2,30
		c-0.6,0.7-1,1.7-1.6,3.1c-0.6,1.6,0.1,2.3,1.6,2.5V30L207.2,30z M207.2,61.6v30.5c-4-1.3-8.2-2.4-11.2-2.6c-0.6,0-1.2-0.1-1.7-0.2
		v-5.5c4.8-0.6,3.6-4.7,6.7-7.1c3.2-2.5,3.2-2.5-1.8-6.1c-1.4-1-3.1-1.7-4.9-2.3V57.4C196.6,58.8,202.6,60.4,207.2,61.6L207.2,61.6z
		 M207.2,97.3v58.3c-1,1.8-2.1,3.3-4.5,3.3c-3.9,0-6.1,8.9-6.1,12.1c0,1.2-1,2.3-2.4,3.4V93.7c0.5-0.2,1.1-0.3,1.7-0.3
		C199.3,93,203.9,95,207.2,97.3L207.2,97.3z M207.2,209.6v4.9C204.3,214,201.6,210,207.2,209.6L207.2,209.6z M207.2,229.4v66.3
		c-2.4-2.5-5.4-7.7-9.1-7.7c-3.9,0-3.2-3.9-3.2-7.1c0-0.5-0.2-1.1-0.6-1.8v-34.5c0.3-0.7,0.2-1.6,0-2.5v-11.5
		c1.8,0.1,3.6,0.2,4.9-0.7c2.9-1.8,5.7-5.3,7.1-1.8C206.5,228.7,206.8,229.1,207.2,229.4L207.2,229.4z M207.2,312.6v68
		c-3.5-3.8-6-12.6-7.3-15.2c-1.4-2.9,0.4-3.2,2.5-6.8c2.1-3.6,1.8-6.4-0.4-12.8c-2.1-6.4-1.4-11.4,1.8-13.9
		c3.2-2.5,1.4-10.7,1.4-15.3C205.2,314.9,206.1,313.7,207.2,312.6L207.2,312.6z M194.3,207.8v-2.8c3.3,0.2,5.7,3.1,2.2,3.1
		C195.7,208.2,195,208.1,194.3,207.8L194.3,207.8z M194.3,199.5v-4.5c3.7,1.3,6.3,6.5,3.5,4.9C196.4,199.1,195.3,199.2,194.3,199.5
		L194.3,199.5z M194.3,77.4c0.4-0.1,0.9-0.3,1.4-0.6c3.2-2.1,1.3-4.2-1.4-4V77.4L194.3,77.4z M194.3,55.7v-2.4
		c2,0.9,2.6,1.8,0.2,2.4C194.5,55.6,194.4,55.7,194.3,55.7z M194.3,5v28.6c-2.3,0.8-4.7,5.7-8.3,7.1V21.1c3.4-1.1,3.8-2.7,0-3.2V6.7
		C188.8,5.8,191.6,5.1,194.3,5L194.3,5z M194.3,53.2v2.4c-1.5,0.4-1.2,1,0,1.7v10.9c-2.7-0.8-5.6-1.2-8.3-1.4V51
		C189,51.4,192.3,52.3,194.3,53.2L194.3,53.2z M194.3,72.7v4.6c-2.9,0.8-4.5-2.3-1.3-4.4C193.5,72.8,193.9,72.8,194.3,72.7
		L194.3,72.7z M194.3,83.7v5.5c-4.6-1.1-5.3-5.1-0.5-5.5C194,83.8,194.1,83.8,194.3,83.7L194.3,83.7z M194.3,93.7v80.8
		c-2.1,1.6-5.1,3.1-6.2,4.8c-1.8,2.9-0.4,5.7-0.4,10.7c0,2.8-0.5,3.8-1.8,3.2V127c1.1,1.7,2.3,2.2,2.5-1.2
		c0.4-6.8,0.4-11.1,3.2-11.1c2.9,0,0.4-3.6-0.7-8.6C190,101.7,189,95.3,194.3,93.7L194.3,93.7z M194.3,195.1v4.5
		c-1.3,0.4-2.4,1-3.5,0.4c-2-1.1-1.5-4.6,1.8-5.2C193.2,194.7,193.8,194.9,194.3,195.1L194.3,195.1z M194.3,205.1v2.8
		c-2.4-0.8-3.6-2.8-0.7-2.8C193.8,205.1,194.1,205.1,194.3,205.1L194.3,205.1z M194.3,230.6v11.5c-0.4-1.4-1.3-3-1.9-4.3
		c-0.8-1.5-3.6-1.4-6.4-1.4v-5.6c0.9,0.2,1.7,0.2,2.5-0.1C190,230.1,192.2,230.4,194.3,230.6L194.3,230.6z M194.3,244.6v34.5
		c-1.6-2.8-5.9-6.4-8.3-9.7v-15.1c0.1-0.1,0.2-0.1,0.3-0.2c3.9-1.8,2.1-7.1,6.1-8.2C193.4,245.7,194,245.2,194.3,244.6L194.3,244.6z
		 M186,204.5v-3.7c3.2,0.7,5,4.3,1.3,3.9C186.8,204.7,186.4,204.6,186,204.5L186,204.5z M186,90.7v-2.2
		C186.8,89.7,187,90.7,186,90.7L186,90.7z M186,48.6v-4.2c3.2,0.7,5,1.8,3.2,3C188.3,48,187.2,48.4,186,48.6z M186,6.7V18
		c-0.8-0.1-1.7-0.2-2.9-0.2c-1.2,0-2.2,0-3.1,0V8.8C182,8.1,184,7.3,186,6.7L186,6.7z M186,21.1v19.5c-0.6,0.2-1.2,0.3-1.8,0.3
		c-1.2,0-2.6,0.2-4.1,0.3V22.2c0.2,0,0.4,0,0.6-0.1C182.8,21.9,184.7,21.6,186,21.1L186,21.1z M186,44.4v4.2
		c-1.8,0.3-3.9,0.3-5.9,0.2v-5.3C182.2,43.7,184.3,44,186,44.4L186,44.4z M186,51v15.9c-1.9-0.1-3.6-0.2-5-0.2c-0.3,0-0.6,0-0.9-0.1
		V50.7c0.4,0,0.8-0.1,1.3-0.1C182.6,50.5,184.2,50.7,186,51L186,51z M186,88.6v2.2c-0.3,0-0.6,0-1.1-0.2c-1.8-0.5-3.4-0.1-4.9,0.6
		V84C182.4,84.8,184.8,86.9,186,88.6L186,88.6z M186,127v66.1c-1-0.5-2.4-2-4.3-4.6c-0.5-0.7-1.1-1.3-1.7-1.8v-69.6
		c2.3,1,3.8,2.1,3.8,3.6C183.8,122.4,184.9,125.3,186,127L186,127z M186,200.8v3.7c-3.3-1-5-4.3-1.1-3.8
		C185.3,200.7,185.6,200.7,186,200.8L186,200.8z M186,230.8v5.6c-2.5,0-4.9-0.1-5.7-1.4c-0.1-0.1-0.2-0.3-0.2-0.4v-8.7
		C181.6,228.4,183.8,230.3,186,230.8L186,230.8z M186,254.4v15.1c-0.4-0.6-0.8-1.2-1.1-1.7C182.8,263.6,182.4,256.4,186,254.4
		L186,254.4z M180.1,94.5v-0.7c0.2-0.4,0.9-0.8,2.3-1.1c4.5-1.1,4,2.4,1.9,3.2C182.9,96.4,180.5,95.5,180.1,94.5L180.1,94.5z
		 M180.1,81.2V69.1c0.3,0,0.6,0,0.9,0c3.9,0.4,6.1,11.8,1.8,11.8C181.9,80.9,180.9,81,180.1,81.2z M180.1,8.8v9.1
		c-5.9,0.2-6.5,0.8-11.2-0.8c-0.6-0.2-1.2-0.4-1.8-0.7v-4.6c0.2,0,0.5,0,0.8,0C171.6,11.8,175.7,10.3,180.1,8.8L180.1,8.8z
		 M180.1,22.2v19.2c-4.9,0.6-10.7,1.5-10.1-1.8c0.7-4.3,3.2-7.5,7.5-8.9C181.6,29.3,172.2,23.1,180.1,22.2L180.1,22.2z M180.1,43.5
		c-3.1-0.3-6.3-0.5-8.3-0.3c-2.2,0.1-3.6-0.4-4.7-1v6.1c1-0.3,2.2-0.6,4-0.4c2.4,0.2,5.8,0.8,9,1V43.5L180.1,43.5z M180.1,50.7v15.9
		c-4.6-0.5-10.8-4.8-10.8-8.1C169.2,55.1,171.5,51.3,180.1,50.7L180.1,50.7z M180.1,69.1v12.1c-3.3,0.6-6.2,1.9-6.2,1.9
		s-1.1,6.8-5,6.8c-0.9,0-1.4,0.2-1.8,0.4V72.4l0,0c2.5-1.8,5-0.4,5.3,2.5c0.4,2.9,2.9,2.1,2.9-1.1C175.3,70.9,176.8,69.1,180.1,69.1
		L180.1,69.1z M180.1,84c-0.5-0.2-1.1-0.3-1.6-0.3c-3.9,0.7-6.4,2.9-4.3,7.1c1.4,2.7,3.3,1.3,5.8,0.2V84L180.1,84z M180.1,93.9v0.7
		C180,94.3,179.9,94.1,180.1,93.9L180.1,93.9z M180.1,117.2v69.6c-4.2-3.5-9.8-2-13-0.7l0,0v-73.4c0.9,0.3,1.8,0.7,2.9,1
		C173.7,115.1,177.4,116.1,180.1,117.2L180.1,117.2z M180.1,225.9v8.7c-1.6-3.2-2.2-10.6-8-10.6c-1.9,0-3.5-0.6-5-1.3v-16.8
		c3.5-3,7.4-5.5,7.4-3.1c0,3.6-3.8,15.5,1.6,15.5c5.3,0,1.8,3.9,3.9,7.5L180.1,225.9L180.1,225.9z M167,37.1V34
		C168.5,34.8,168.9,36.7,167,37.1L167,37.1z M167,31.1c0.5-0.2,1-0.5,1.5-0.8c5.2-3.1,1.7-8.9-1.5-9.6V31.1z M167,11.8v4.6
		C162.8,14.6,160.4,12,167,11.8L167,11.8z M167,20.7c-0.1,0-0.2,0-0.3-0.1c-3.2-0.4-2.5-5.7-9.3-5c-5.7-0.4,2.1,7.1,1.4,11.4
		c-0.6,3.9,3.4,6,8.2,4V20.7L167,20.7z M167,34v3.1c-0.3,0.1-0.8,0.1-1.3,0.1c-4-0.3-4-3.5-0.3-3.5C166.1,33.7,166.6,33.8,167,34
		L167,34z M167,42.1v6.1c-1.8,0.5-2.6,1.1-4.2-0.8c-2.5-2.9-5-7.8-0.4-7.1C164.3,39.4,165.1,41,167,42.1L167,42.1z M167,72.4v17.8
		c-1.4,0.9-0.7,2.9-3.5,3.2c-3.6,0.4-2.9,6.8-4.6,7.8c-1.8,1.1,1.1,3.2,1.4,6.1c0.3,2.4,1.9,3.6,6.7,5.4v73.4
		c-3.6,1.4-8.2-1.1-11.4,1.8c-0.6,0.5-1.2,1.3-1.8,2.2V74.8c4.6-0.2,6.6-0.8,5-2.4c-2.1-2.1-2.5-4.6-4.3-5c-0.3-0.1-0.5-0.2-0.7-0.3
		v-3.9c0.3-0.3,0.6-0.6,1.1-0.8c2.9-1.4,3.6-3.9,5.3-1.1c1.8,2.9-1.1,6.8,2.9,6.4C167.1,67.4,164.6,74.1,167,72.4L167,72.4z
		 M167,205.7v16.8c-3.4-1.7-6.3-4.5-11-4.7c-0.7,0-1.4-0.1-2.1-0.2v-11.1c2.9,2.9,6.2,5.8,8.9,3.1
		C163.9,208.5,165.5,207.1,167,205.7L167,205.7z M153.9,72.5c1.6-0.4,1.2-1.5,0-2.5V72.5L153.9,72.5z M153.9,47.5
		c1.4,0.2,2.7,0.4,4.2,0.4c3.9,0-1.2-2.8-4.2-3.6V47.5L153.9,47.5z M153.9,40.7c2.2,0.7,7.4-2.1,5-2.1c-2.9,0,0.8-4.8-2.1-4.8
		c-1,0-2,0.7-2.8,1.8V40.7L153.9,40.7z M153.9,34.8v-4.3C155.2,32,155.3,34.1,153.9,34.8L153.9,34.8z M158.8,50.8
		c-4.5,0.3-4.3,3.2-3.2,5.9c1.1,2.7,2.4,2.7,3.2,1.1c0.8-1.6,5.1-2.1,6.1-4.8C166.1,50.3,162,50.8,158.8,50.8z M153.9,30.5v4.3
		c-0.6,0.3-1.4,0.4-2.5,0.1c-2.1-0.6-3.8-0.7-5.5-0.8v-5.7c1.3,0.2,2.6,0.4,4,0.4C151.7,28.9,153.1,29.6,153.9,30.5L153.9,30.5z
		 M153.9,35.5v5.1c-0.5-0.2-0.8-0.5-0.9-1.1C152.7,38,153.1,36.6,153.9,35.5L153.9,35.5z M153.9,44.3c-0.5-0.1-0.9-0.2-1.2-0.2
		c-2.4,0-2.9-4-6.7-4l-0.1,0v5.9c2.5,0.3,5.2,1,8,1.4V44.3L153.9,44.3z M153.9,63.2V67C152.9,66.3,152.6,64.5,153.9,63.2L153.9,63.2
		z M153.9,70v2.5c-0.5,0.1-1.1,0.2-2,0.2c-2.8,0-4.9-0.8-6-1.7v-2.7c0.5-0.2,1.2-0.4,2.2-0.4C150.1,67.9,152.5,68.9,153.9,70
		L153.9,70z M153.9,74.8V190c-2.7,4.1-5.1,11.3-2.5,13.9c0.8,0.8,1.6,1.7,2.5,2.6v11.1c-2.9-0.5-5.5-1.6-8-2.6V74.7
		c0.8,0.1,1.7,0.1,2.6,0.1C150.6,74.9,152.4,74.8,153.9,74.8L153.9,74.8z M145.9,63.1V50.9c0.4-0.2,0.9-0.3,1.4-0.4
		c4,0,2.1,7.5,4.3,7.2c2.1-0.3-0.8,5.3-5.1,5.3C146.4,63.1,146.1,63.1,145.9,63.1L145.9,63.1z M145.9,22.9v-2.2
		c0.4-0.2,1-0.4,1.9-0.4c3.9-0.4,6.4,4.6,2.5,4.6C148.5,25,146.8,24,145.9,22.9z M145.9,20.7v2.2C145.3,22.1,145.1,21.2,145.9,20.7
		L145.9,20.7z M145.9,28.5v5.7c-1.6,0-3.1,0.1-4.7,0.1v-6.8C142.9,27.8,144.4,28.2,145.9,28.5L145.9,28.5z M145.9,40.1v5.9
		c-0.2,0-0.5,0-0.7-0.1C141.2,45.8,141.5,39.7,145.9,40.1L145.9,40.1z M145.9,50.9v12.1c-1.7-0.2-3.4-1.3-4.7-2.6v-3.8
		c3.1-0.1,5.2-1.1,3.4-2.4C143.1,53.2,143.8,51.7,145.9,50.9L145.9,50.9z M145.9,68.3V71C144.8,70,144.7,68.9,145.9,68.3L145.9,68.3
		z M145.9,74.7V215c-1.7-0.7-3.2-1.4-4.7-1.8V73.7C142.6,74.2,144,74.6,145.9,74.7L145.9,74.7z M141.3,68.1v-1.5
		c0.3,0.1,0.6,0.1,0.8,0.1C143.7,66.7,143.1,67.4,141.3,68.1z M141.3,27.4v6.8c-1,0-2,0-3.1-0.1c-1.4-0.1-2.7-1-3.8-2.1v-5.7
		C137,26.5,139.2,26.9,141.3,27.4L141.3,27.4z M141.3,56.7v3.8c-1.8-1.8-2.6-3.8-0.6-3.8C140.9,56.7,141.1,56.7,141.3,56.7
		L141.3,56.7z M141.3,66.6c-2.6-0.5-5.3-3.5-6.9-8.1v10.3c0.2,0,0.4,0,0.6,0c2.5,0.2,4.8-0.3,6.3-0.8V66.6L141.3,66.6z M141.3,73.7
		v139.5c-0.7-0.2-1.4-0.3-2-0.4c-2.8-0.2-3.8-4.2-4.9-7.6V71.7C137.1,71.9,138.9,72.9,141.3,73.7L141.3,73.7z M134.4,46.7V45
		C137.6,45.1,137.4,46.3,134.4,46.7L134.4,46.7z M134.4,41.6v-2.8c0.2,0,0.4,0,0.7,0c3.7,0,4.5,2.9,0.8,2.9
		C135.4,41.7,134.9,41.7,134.4,41.6z M134.4,26.4v5.7c-2.5-2.7-3.6-6.7-0.8-5.7C133.9,26.4,134.1,26.4,134.4,26.4L134.4,26.4z
		 M134.4,38.8v2.8C131.8,41,130.8,39,134.4,38.8L134.4,38.8z M134.4,45c-0.1,0-0.3,0-0.4,0c-4.5,0-4.5-5.9-8-5.9
		c-2.9-0.3-2.4,0.8-3.5,3.7c-0.8,2.1-3.2,0-5.8-1.3v8c1.3-0.6,2.8-1.5,4-2.4c2.4-1.9,5.3-0.5,10.9-0.3c1.1,0.1,2,0,2.8-0.1V45
		L134.4,45z M134.4,58.5v10.3c-5.5,0-13.2,4.2-17.7,2.4V53.6c1.7,0.7,3.5,1.3,5.5,1.3c5,0,10.3-2.1,12.1,3.2
		C134.3,58.2,134.4,58.3,134.4,58.5L134.4,58.5z M134.4,71.7c-0.4,0-0.8,0-1.2,0c-5.7,0-5,6.4-9.3,5c-3.1-1-5.7-0.4-7.3-1.2v118.5
		c2.7,4.1,4.8,7.8,7.3,7.2c2.5-0.7,0-4.6-2.1-7.8c-2.1-3.2,7.5,5.7,10.3,7.8c1,0.8,1.7,2.4,2.3,4.2V71.7L134.4,71.7z M116.7,32.1
		v-2.4c0.5-0.8,1.6-1.2,3.5-1.1c4,0,6.8,6.8,1.7,6.8C119.5,35.5,117.4,33.8,116.7,32.1z M116.7,29.7v2.4
		C116.3,31.2,116.3,30.4,116.7,29.7L116.7,29.7z M116.7,41.5v8c-1.5,0.6-2.6,0.8-2.4-0.2c0.2-1.3-2.2-0.6-3.8-1.1v-6.2
		c0.7-0.7,1.7-1.1,3-1.2C114.5,40.6,115.6,41,116.7,41.5L116.7,41.5z M116.7,53.6v17.7c-0.2-0.1-0.4-0.2-0.6-0.3
		c-2.3-1.2-4.4-1.9-5.7-2.5v-1.6c0.1,0,0.2-0.1,0.3-0.1c1.5-0.6,0.9-0.7-0.3-0.9V51.1C112.5,51.5,114.5,52.6,116.7,53.6L116.7,53.6z
		 M116.7,75.5v118.5l-0.2-0.3c-2.1-3.1-4.4-5.7-6-8.7V71.8c2.5-0.2,4.2-0.3,4.9,2C115.7,74.7,116.1,75.2,116.7,75.5L116.7,75.5z
		 M110.4,37.8v-3.1C112.6,35.1,112,36.5,110.4,37.8z M110.4,34.7v3.1c-1.5,1.2-4,2.4-6.1,2.4c-4.5,0-3.5,3.2-6.9,3.2
		c-3.5,0-5.6-4.3-0.3-4.5c5.3-0.3,5.6-4,11.7-4.3C109.5,34.5,110,34.6,110.4,34.7L110.4,34.7z M110.4,41.9c-1.3,1.2-1.6,3.2-1.3,4.9
		c0.2,0.8,0.6,1.1,1.3,1.3V41.9L110.4,41.9z M110.4,51.1v14.7c-1.7-0.2-4.6-0.6-5-2.7c-0.7-3.6-11.1,0-13.9-3.6
		c-2.9-3.6-0.4-11.1,5.7-11.1c5-0.4,7.5,2.5,11.8,2.5C109.5,51,110,51,110.4,51.1L110.4,51.1z M110.4,66.8v1.6
		C109.2,67.9,109,67.5,110.4,66.8L110.4,66.8z M110.4,71.8c-1.1,0.1-2.3,0.2-3.6,0.2c-4.6,0-2.5-3.9-8.6-3.9c-6.1,0-3.2,1.4-8.6-2.1
		c-5.3-3.6-3.6,1.4-10.7,1.4c-7.1,0-8.6,1.4-8.6,4.6s-10-5-20.3-5.7c-10.3-0.7-21.4-3.9-27.8-3.9c-6.4,0-9.6,6.8-17.1,7.8
		c-7.5,1.1,0.7,3.2,2.9,7.1c2.1,3.9,1.4,3.6-5.7,4.3c-7.1,0.7,3.6,5.3,8.6,5.3c5,0-0.4,3.6-3.9,5.7c-3.6,2.1-5,9.6,0.7,10
		c5.7,0.4,2.9,3.6,10,3.6c7.1,0,0.7,5.3-3.9,8.9c-4.6,3.6-4.3,8.2-1.8,6.1c2.5-2.1,8.9-7.5,12.1-8.6c3.2-1.1,5.3-6.8,8.2-8.6
		c2.9-1.8,5,3.6,6.8,0.7c1.8-2.9,5.3-0.4,8.6-1.1c3.2-0.7,10,0.7,12.8,1.4c2.9,0.7,6.1,3.6,10.3,3.2c4.3-0.4,4.6,6.8,7.5,9.3
		c2.9,2.5,6.1,2.1,5.3,5.7c-0.7,3.6,5,8.6,10.3,10.7c5.3,2.1,7.5,8.6,3.2,6.4c-4.3-2.1-4.6-1.4-3.2,2.5c1.4,3.9,2.1,6.4,0,7.5
		c-2.1,1.1-2.1,11.4,0.7,16.4c2.9,5,12.8,10,14.3,14.6c0.4,1.2,0.9,2.4,1.5,3.4V71.8z"/>
</g>
<g id="OBJECTS">
</g>
</svg>
